<svg enable-background="new 0 0 1080 1080" viewBox="0 0 1080 1080" xmlns="http://www.w3.org/2000/svg"><g style="fill:#ffff48;stroke:#231f20;stroke-width:10.4299;stroke-linecap:round;stroke-linejoin:round;stroke-miterlimit:10"><path d="m204.6 342.8v257l75-40.5v-172.4l153.8-82.3v-84.3z"/><path d="m875.6 559.2v-84.7l74.8-39.8v84.1z"/><path d="m658.9 350.6-166 89.5v84.2l166.3-88.7z"/><path d="m492.9 440.1 166-89.5 216.7 123.9 74.8-39.8-517.3-297.7-303.5 162.5 75 43.3 228.8-122.5 146.9 84.5-166.7 89.6 79.3 45.7-79.3-45.7v176.5l300.5 171.6 84.6-44.8-305.8-173.4z"/><path d="m651.4 943-521.8-297.9v-345.6l74.7 43.3v257l447.1 257.3z"/><path d="m950.4 697.3-299 159.8v86l298.9-160v-85.8l-377-216-80.4 43 305.8 173.4-144.9 76.8-220.8-127.3-153.4-87.9-75.3 40.5 447.1 257.3m-222.6-125.7"/><path d="m433.4 304.6 71 41 75.9-40.8-146.9-84.5z"/><path d="m875.6 559.2-216.4-123.6v-85l216.4 123.9z"/></g></svg>